<svg xmlns="http://www.w3.org/2000/svg" xmlns:xlink="http://www.w3.org/1999/xlink" width="325.141" height="168.927" viewBox="0 0 325.141 168.927">
  <defs>
    <clipPath id="clip-path">
      <rect id="Rectangle_10" data-name="Rectangle 10" width="325.141" height="168.927" transform="translate(-0.239 -5.217)" fill="none"/>
    </clipPath>
  </defs>
  <g id="Group_584" data-name="Group 584" transform="translate(0.239 5.217)">
    <g id="Mask_Group_3" data-name="Mask Group 3" clip-path="url(#clip-path)">
      <path id="Path_28" data-name="Path 28" d="M43.606,113.166v7.217H9.349q-9.351,0-9.349-7.6V96.911q0-7.565,9.349-7.564H43.489v7.215H9.349q-1.745,0-1.746,1.512v3.144H43.257v7.215H7.6v3.181q0,1.552,1.746,1.551Z" transform="translate(0 16.285)" fill="#ed4a23"/>
      <path id="Path_29" data-name="Path 29" d="M52.116,98.89a7.365,7.365,0,0,0-2-1.649,4.825,4.825,0,0,0-2.425-.679h-.388v23.82H39.934V89.347h7.759a12.092,12.092,0,0,1,5.219,1.007,13.079,13.079,0,0,1,4.054,3.183l15.014,17.3a8.169,8.169,0,0,0,1.978,1.629,4.617,4.617,0,0,0,2.406.7h.388V89.347H84.16v31.036h-7.8a12.763,12.763,0,0,1-5.451-1.047A12.125,12.125,0,0,1,66.781,116Z" transform="translate(7.279 16.285)" fill="#ed4a23"/>
      <path id="Path_30" data-name="Path 30" d="M100.359,111.692a2.372,2.372,0,0,0,2.056,1.474h2.095a1.986,1.986,0,0,0,1.068-.33,2.928,2.928,0,0,0,.949-1.105l12.8-22.384h8.73l-16.217,28.436a5.089,5.089,0,0,1-4.734,2.6H99.777a7.311,7.311,0,0,1-1.746-.175,3.894,3.894,0,0,1-1.2-.5,3.447,3.447,0,0,1-.874-.815,8.375,8.375,0,0,1-.718-1.144l-16.255-28.4H87.75Z" transform="translate(14.396 16.285)" fill="#ed4a23"/>
      <path id="Path_31" data-name="Path 31" d="M149.125,114.291H123.946l-3.414,6.091h-8.768l16.255-28.4a8.462,8.462,0,0,1,.718-1.146,3.526,3.526,0,0,1,.874-.813,3.925,3.925,0,0,1,1.2-.5,7.375,7.375,0,0,1,1.745-.174H140.4a5.086,5.086,0,0,1,4.733,2.6l16.217,28.437h-8.73Zm-21.492-6.828H145.4L140.007,98a2.938,2.938,0,0,0-.951-1.105,1.983,1.983,0,0,0-1.068-.33H135a2.371,2.371,0,0,0-2.056,1.473Z" transform="translate(20.371 16.285)" fill="#ed4a23"/>
      <path id="Path_32" data-name="Path 32" d="M199.587,101.411v11.444q0,7.526-9.349,7.526H163.312q-9.349,0-9.349-7.6V96.91q0-7.564,9.39-7.564h35.42v7.215h-35.42q-1.786,0-1.785,1.513v13.539q0,1.552,1.783,1.551h26.89q1.741,0,1.743-1.474v-10.28Z" transform="translate(28.063 16.285)" fill="#ed4a23"/>
      <path id="Path_33" data-name="Path 33" d="M205.184,120.382q-9.349,0-9.349-7.526V89.346h7.6v22.345q0,1.475,1.746,1.474h33.829v7.217Z" transform="translate(35.695 16.285)" fill="#ed4a23"/>
      <path id="Path_34" data-name="Path 34" d="M246.658,120.382q-11.678,0-11.677-9.853V99.239q0-9.892,11.677-9.893h23.975q11.676,0,11.677,9.893v11.289q0,9.853-11.677,9.853Zm0-23.819q-4.074,0-4.073,2.677v11.289q0,2.639,4.073,2.638h23.975q4.074,0,4.074-2.638V99.239q0-2.678-4.074-2.677Z" transform="translate(42.831 16.285)" fill="#ed4a23"/>
      <g id="Group_6" data-name="Group 6" transform="translate(105.583)">
        <path id="Path_35" data-name="Path 35" d="M89.305,42.472c0,23.456,25.513,42.472,56.987,42.472s56.988-19.016,56.988-42.472S177.765,0,146.292,0,89.305,19.016,89.305,42.472" transform="translate(-89.305)" fill="#ed4a23"/>
        <path id="Path_36" data-name="Path 36" d="M145.527,13.911c24.032,0,41.385,6.856,41.385,17.308,0,7.86-3.991,12.435-17.965,14.5s-24.61,2.776-31.911,2.133a205.184,205.184,0,0,1-20.426-2.769q5.579,8.2,30.8,9.27,21.041-1.681,31.829-8.86,5.045-1.516,6.686,1.846,1.928,3.446-1.723,7.671-12.143,9.475-36.464,10.951c-28.821-.054-46.717-8.822-46.717-24.979,0-16.515,17.105-27.07,44.5-27.07m1.109,11.976c-15.238,0-23.968,3.118-28.506,6.809,2.761,2.871,12.533,3.937,29.325,3.937,16.653,0,24.692-1.836,24.692-4.1,0-2.92-7.048-6.644-25.511-6.644" transform="translate(-87.169 2.536)" fill="#28216d"/>
        <circle id="Ellipse_1" data-name="Ellipse 1" cx="5.572" cy="5.572" r="5.572" transform="translate(88.243 47.227)" fill="none" stroke="#ed4a23" stroke-miterlimit="10" stroke-width="1"/>
      </g>
    </g>
  </g>
</svg>
