<svg xmlns="http://www.w3.org/2000/svg" xmlns:xlink="http://www.w3.org/1999/xlink" width="307.338" height="159.678" viewBox="0 0 307.338 159.678">
  <defs>
    <clipPath id="clip-path">
      <rect id="Rectangle_10" data-name="Rectangle 10" width="307.338" height="159.678" fill="none"/>
    </clipPath>
  </defs>
  <g id="Group_584" data-name="Group 584" transform="translate(0.239 5.217)">
    <g id="Mask_Group_3" data-name="Mask Group 3" transform="translate(-0.239 -5.217)" clip-path="url(#clip-path)">
      <path id="Path_28" data-name="Path 28" d="M41.218,111.862v6.821H8.837Q0,118.683,0,111.5v-15q0-7.151,8.837-7.15h32.27v6.82H8.837q-1.649,0-1.651,1.429v2.972h33.7v6.82H7.187V110.4q0,1.467,1.651,1.466Z" transform="translate(0.226 15.433)" fill="#ed4a23"/>
      <path id="Path_29" data-name="Path 29" d="M51.449,98.368a6.962,6.962,0,0,0-1.889-1.559,4.561,4.561,0,0,0-2.292-.641H46.9v22.516H39.934V89.347h7.334A11.43,11.43,0,0,1,52.2,90.3a12.363,12.363,0,0,1,3.832,3.008l14.192,16.354a7.722,7.722,0,0,0,1.87,1.54,4.365,4.365,0,0,0,2.274.66h.367V89.347h7v29.336h-7.37a12.064,12.064,0,0,1-5.153-.99,11.461,11.461,0,0,1-3.9-3.154Z" transform="translate(4.92 15.433)" fill="#ed4a23"/>
      <path id="Path_30" data-name="Path 30" d="M99.188,110.468a2.242,2.242,0,0,0,1.943,1.394h1.98a1.878,1.878,0,0,0,1.009-.312,2.768,2.768,0,0,0,.9-1.045l12.1-21.158h8.252l-15.329,26.879a4.81,4.81,0,0,1-4.475,2.457h-6.93a6.911,6.911,0,0,1-1.651-.165,3.681,3.681,0,0,1-1.137-.477,3.258,3.258,0,0,1-.826-.77,7.917,7.917,0,0,1-.678-1.082L78.982,89.347H87.27Z" transform="translate(9.509 15.433)" fill="#ed4a23"/>
      <path id="Path_31" data-name="Path 31" d="M147.079,112.925h-23.8l-3.227,5.758h-8.288l15.365-26.843a8,8,0,0,1,.678-1.083,3.333,3.333,0,0,1,.826-.769,3.71,3.71,0,0,1,1.137-.477,6.971,6.971,0,0,1,1.649-.164h7.408A4.807,4.807,0,0,1,143.3,91.8l15.329,26.88h-8.252Zm-20.316-6.454h16.794l-5.1-8.948a2.777,2.777,0,0,0-.9-1.045,1.874,1.874,0,0,0-1.009-.312H133.73a2.241,2.241,0,0,0-1.943,1.392Z" transform="translate(13.362 15.432)" fill="#ed4a23"/>
      <path id="Path_32" data-name="Path 32" d="M197.089,100.75v10.818q0,7.114-8.837,7.114H162.8q-8.837,0-8.837-7.188v-15q0-7.149,8.875-7.15h33.48v6.82h-33.48q-1.688,0-1.687,1.43v12.8q0,1.467,1.685,1.466h25.417q1.646,0,1.647-1.394V100.75Z" transform="translate(18.323 15.432)" fill="#ed4a23"/>
      <path id="Path_33" data-name="Path 33" d="M204.672,118.682q-8.837,0-8.837-7.114V89.346h7.187v21.121q0,1.395,1.651,1.394H236.65v6.821Z" transform="translate(23.244 15.432)" fill="#ed4a23"/>
      <path id="Path_34" data-name="Path 34" d="M246.019,118.682q-11.038,0-11.038-9.314V98.7q0-9.35,11.038-9.352h22.663q11.037,0,11.038,9.352v10.671q0,9.314-11.038,9.314Zm0-22.515q-3.85,0-3.85,2.53v10.671q0,2.494,3.85,2.493h22.663q3.85,0,3.851-2.493V98.7q0-2.531-3.851-2.53Z" transform="translate(27.845 15.432)" fill="#ed4a23"/>
      <g id="Group_6" data-name="Group 6" transform="translate(100.028 4.931)">
        <path id="Path_35" data-name="Path 35" d="M89.305,40.146c0,22.172,24.116,40.146,53.866,40.146s53.867-17.974,53.867-40.146S172.921,0,143.171,0,89.305,17.974,89.305,40.146" transform="translate(-89.305)" fill="#ed4a23"/>
        <path id="Path_36" data-name="Path 36" d="M143.09,13.911c22.716,0,39.119,6.481,39.119,16.361,0,7.429-3.773,11.754-16.981,13.705s-23.263,2.624-30.163,2.016a193.95,193.95,0,0,1-19.308-2.617q5.274,7.755,29.116,8.763,19.889-1.589,30.086-8.375,4.769-1.433,6.32,1.744,1.822,3.257-1.628,7.251-11.478,8.956-34.467,10.352c-27.243-.051-44.159-8.339-44.159-23.611,0-15.611,16.169-25.588,42.065-25.588m1.048,11.321c-14.4,0-22.656,2.947-26.945,6.436,2.609,2.713,11.847,3.721,27.719,3.721,15.742,0,23.34-1.736,23.34-3.877,0-2.76-6.662-6.281-24.114-6.281" transform="translate(-87.927 1.635)" fill="#28216d"/>
        <circle id="Ellipse_1" data-name="Ellipse 1" cx="5.267" cy="5.267" r="5.267" transform="translate(83.411 44.641)" fill="none" stroke="#ed4a23" stroke-miterlimit="10" stroke-width="1"/>
      </g>
    </g>
  </g>
</svg>
