<svg id="Group_4" data-name="Group 4" xmlns="http://www.w3.org/2000/svg" xmlns:xlink="http://www.w3.org/1999/xlink" width="549.717" height="265.318" viewBox="0 0 549.717 265.318">
  <defs>
    <clipPath id="clip-path">
      <rect id="Rectangle_10" data-name="Rectangle 10" width="549.717" height="265.318" fill="none"/>
    </clipPath>
  </defs>
  <g id="Group_3" data-name="Group 3" clip-path="url(#clip-path)">
    <path id="Path_4" data-name="Path 4" d="M34.019,140.958V124.11h3.356l3.988,11.929q.552,1.667.806,2.495.285-.921.9-2.7L47.1,124.11h3v16.848H47.949v-14.1l-4.9,14.1H41.041l-4.873-14.344v14.344Z" transform="translate(33.981 123.97)" fill="#fff"/>
    <path id="Path_5" data-name="Path 5" d="M42.937,140.958l6.47-16.848h2.4l6.9,16.848H56.166l-1.967-5.1H47.155l-1.851,5.1ZM47.8,134.04h5.711l-1.757-4.667q-.807-2.126-1.2-3.494a21.5,21.5,0,0,1-.909,3.218Z" transform="translate(42.888 123.97)" fill="#fff"/>
    <path id="Path_6" data-name="Path 6" d="M51.734,140.958V124.11H59.2a9.912,9.912,0,0,1,3.424.454,3.722,3.722,0,0,1,1.873,1.605,4.77,4.77,0,0,1,.7,2.539,4.231,4.231,0,0,1-1.163,3.022,5.867,5.867,0,0,1-3.584,1.563,5.708,5.708,0,0,1,1.343.84,11.579,11.579,0,0,1,1.851,2.241l2.93,4.585h-2.8l-2.229-3.506q-.977-1.517-1.609-2.321A5.106,5.106,0,0,0,58.808,134a3.42,3.42,0,0,0-1.017-.448,6.7,6.7,0,0,0-1.241-.08H53.963v7.482Zm2.229-9.413h4.793a7.213,7.213,0,0,0,2.391-.316,2.547,2.547,0,0,0,1.309-1.011,2.744,2.744,0,0,0,.448-1.511,2.508,2.508,0,0,0-.867-1.965,4.057,4.057,0,0,0-2.74-.772H53.963Z" transform="translate(51.675 123.97)" fill="#fff"/>
    <path id="Path_7" data-name="Path 7" d="M60.173,140.958V124.11H62.4v8.355l8.365-8.355h3.022l-7.068,6.826,7.38,10.022H71.161l-6-8.529-2.758,2.69v5.839Z" transform="translate(60.105 123.969)" fill="#fff"/>
    <path id="Path_8" data-name="Path 8" d="M68.1,140.958V124.11H80.278V126.1H70.326v5.161h9.321v1.977H70.326v5.735H80.67v1.989Z" transform="translate(68.02 123.969)" fill="#fff"/>
    <path id="Path_9" data-name="Path 9" d="M80.847,140.958V126.1H75.3V124.11H88.65V126.1H83.075v14.862Z" transform="translate(75.211 123.969)" fill="#fff"/>
    <rect id="Rectangle_7" data-name="Rectangle 7" width="2.229" height="16.848" transform="translate(166.528 248.08)" fill="#fff"/>
    <path id="Path_10" data-name="Path 10" d="M86.381,140.958V124.11h2.287l8.849,13.227V124.11h2.139v16.848H97.369l-8.851-13.241v13.241Z" transform="translate(86.283 123.969)" fill="#fff"/>
    <path id="Path_11" data-name="Path 11" d="M103.061,134.5v-1.977l7.138-.012v6.252a12.731,12.731,0,0,1-3.39,1.971,10.078,10.078,0,0,1-3.586.66,9.579,9.579,0,0,1-4.511-1.061,7.024,7.024,0,0,1-3.062-3.074,9.686,9.686,0,0,1-1.035-4.493,10.446,10.446,0,0,1,1.029-4.593A6.841,6.841,0,0,1,98.6,125a9.265,9.265,0,0,1,4.447-1.035,8.817,8.817,0,0,1,3.3.594,5.5,5.5,0,0,1,2.317,1.649,7.33,7.33,0,0,1,1.275,2.758l-2.011.552a6.238,6.238,0,0,0-.941-2.023,3.891,3.891,0,0,0-1.609-1.177,5.889,5.889,0,0,0-2.323-.442,6.835,6.835,0,0,0-2.643.464,4.923,4.923,0,0,0-1.8,1.223,5.861,5.861,0,0,0-1.063,1.667,8.814,8.814,0,0,0-.644,3.392,8.245,8.245,0,0,0,.776,3.768,4.97,4.97,0,0,0,2.259,2.253,7,7,0,0,0,3.15.736,7.442,7.442,0,0,0,2.826-.558,7.263,7.263,0,0,0,2.093-1.189V134.5Z" transform="translate(94.507 123.825)" fill="#fff"/>
    <path id="Path_12" data-name="Path 12" d="M113.823,139.114a7.084,7.084,0,0,1-2.229,1.707,6.038,6.038,0,0,1-2.609.568,5.154,5.154,0,0,1-4.1-1.747,4.748,4.748,0,0,1-1.229-3.184,4.413,4.413,0,0,1,1.005-2.82,8.343,8.343,0,0,1,3-2.211,10.184,10.184,0,0,1-1.517-2.129,3.726,3.726,0,0,1-.378-1.573,3.5,3.5,0,0,1,1.189-2.636,4.192,4.192,0,0,1,2.994-1.123,3.894,3.894,0,0,1,2.82,1.059,3.4,3.4,0,0,1,1.1,2.539q0,2.4-3.182,4.1l3.022,3.852a9.575,9.575,0,0,0,.8-2.345l2.149.458a11.752,11.752,0,0,1-1.493,3.634,12.021,12.021,0,0,0,2.633,2.585l-1.391,1.643a12.085,12.085,0,0,1-2.587-2.379m-1.3-1.633-3.794-4.7a7.325,7.325,0,0,0-2.265,1.855,3.006,3.006,0,0,0-.586,1.7,3.6,3.6,0,0,0,.818,2.125,2.7,2.7,0,0,0,2.309,1.1,3.805,3.805,0,0,0,1.925-.58,4.669,4.669,0,0,0,1.593-1.5m-2.908-7.148a5.531,5.531,0,0,0,1.741-1.389,2.347,2.347,0,0,0,.4-1.321,1.9,1.9,0,0,0-.546-1.409,1.847,1.847,0,0,0-1.361-.546,1.922,1.922,0,0,0-1.4.542,1.764,1.764,0,0,0-.558,1.321,1.958,1.958,0,0,0,.2.822,4.343,4.343,0,0,0,.6.913Z" transform="translate(103.536 123.825)" fill="#fff"/>
    <path id="Path_13" data-name="Path 13" d="M111.863,140.958V124.11h6.322a7.8,7.8,0,0,1,3.1.512,3.976,3.976,0,0,1,1.827,1.573,4.149,4.149,0,0,1,.662,2.227,3.824,3.824,0,0,1-.586,2.033A4.2,4.2,0,0,1,121.416,132a4.4,4.4,0,0,1,2.349,1.527,4.1,4.1,0,0,1,.824,2.553,4.91,4.91,0,0,1-.5,2.2,4.242,4.242,0,0,1-1.235,1.569,5.121,5.121,0,0,1-1.845.833,11.2,11.2,0,0,1-2.716.282Zm2.231-9.77h3.642a8.162,8.162,0,0,0,2.127-.194,2.362,2.362,0,0,0,1.281-.837,2.423,2.423,0,0,0,.432-1.473,2.718,2.718,0,0,0-.4-1.477,2.041,2.041,0,0,0-1.149-.871,9.658,9.658,0,0,0-2.563-.236h-3.368Zm0,7.782h4.2a9.6,9.6,0,0,0,1.515-.08,3.6,3.6,0,0,0,1.287-.46,2.441,2.441,0,0,0,.852-.935,2.936,2.936,0,0,0,.334-1.419,2.8,2.8,0,0,0-.484-1.639,2.555,2.555,0,0,0-1.339-.977,8.3,8.3,0,0,0-2.465-.28h-3.9Z" transform="translate(111.736 123.97)" fill="#fff"/>
    <path id="Path_14" data-name="Path 14" d="M130.8,124.11h2.229v9.734a11.5,11.5,0,0,1-.574,4.034,4.915,4.915,0,0,1-2.075,2.431,7.349,7.349,0,0,1-3.936.935,8.062,8.062,0,0,1-3.872-.816,4.626,4.626,0,0,1-2.149-2.363,11.221,11.221,0,0,1-.646-4.222V124.11h2.231v9.723a9.47,9.47,0,0,0,.408,3.234,3.084,3.084,0,0,0,1.4,1.6,4.844,4.844,0,0,0,2.433.564,4.642,4.642,0,0,0,3.5-1.113Q130.8,137,130.8,133.833Z" transform="translate(119.644 123.97)" fill="#fff"/>
    <path id="Path_15" data-name="Path 15" d="M127.888,135.689l2.1-.184a4.652,4.652,0,0,0,.694,2.073,3.8,3.8,0,0,0,1.7,1.313,6.444,6.444,0,0,0,2.584.5,6.164,6.164,0,0,0,2.253-.382,3.146,3.146,0,0,0,1.455-1.037,2.418,2.418,0,0,0,.478-1.443,2.184,2.184,0,0,0-.462-1.385,3.39,3.39,0,0,0-1.515-1,30.633,30.633,0,0,0-3-.822,15.152,15.152,0,0,1-3.252-1.051,4.555,4.555,0,0,1-1.8-1.567,3.839,3.839,0,0,1-.594-2.1,4.273,4.273,0,0,1,.726-2.385,4.488,4.488,0,0,1,2.115-1.683,8.006,8.006,0,0,1,3.09-.576,8.415,8.415,0,0,1,3.3.606,4.769,4.769,0,0,1,2.2,1.773,5.119,5.119,0,0,1,.828,2.654l-2.139.162a3.454,3.454,0,0,0-1.165-2.415,4.559,4.559,0,0,0-2.936-.816,4.723,4.723,0,0,0-2.95.742,2.226,2.226,0,0,0-.925,1.789,1.911,1.911,0,0,0,.658,1.493,8.886,8.886,0,0,0,3.36,1.2,22.242,22.242,0,0,1,3.73,1.077,5.069,5.069,0,0,1,2.171,1.717,4.169,4.169,0,0,1,.7,2.4,4.591,4.591,0,0,1-.772,2.535,5.081,5.081,0,0,1-2.211,1.849,7.732,7.732,0,0,1-3.248.662,9.732,9.732,0,0,1-3.832-.666,5.366,5.366,0,0,1-2.425-2.007,5.672,5.672,0,0,1-.925-3.028" transform="translate(127.743 123.826)" fill="#fff"/>
    <rect id="Rectangle_8" data-name="Rectangle 8" width="2.229" height="16.848" transform="translate(272.468 248.08)" fill="#fff"/>
    <path id="Path_16" data-name="Path 16" d="M139.38,140.958V124.11h2.289l8.849,13.227V124.11h2.139v16.848h-2.289l-8.849-13.241v13.241Z" transform="translate(139.224 123.969)" fill="#fff"/>
    <path id="Path_17" data-name="Path 17" d="M147.919,140.958V124.11H160.1V126.1h-9.954v5.161h9.321v1.977h-9.321v5.735h10.344v1.989Z" transform="translate(147.753 123.969)" fill="#fff"/>
    <path id="Path_18" data-name="Path 18" d="M155.372,135.689l2.1-.184a4.653,4.653,0,0,0,.694,2.073,3.8,3.8,0,0,0,1.7,1.313,6.445,6.445,0,0,0,2.585.5,6.164,6.164,0,0,0,2.253-.382,3.146,3.146,0,0,0,1.455-1.037,2.418,2.418,0,0,0,.478-1.443,2.184,2.184,0,0,0-.462-1.385,3.39,3.39,0,0,0-1.515-1,30.628,30.628,0,0,0-3-.822,15.153,15.153,0,0,1-3.252-1.051,4.555,4.555,0,0,1-1.8-1.567,3.84,3.84,0,0,1-.594-2.1,4.273,4.273,0,0,1,.726-2.385,4.489,4.489,0,0,1,2.115-1.683,8.007,8.007,0,0,1,3.09-.576,8.415,8.415,0,0,1,3.3.606,4.769,4.769,0,0,1,2.2,1.773,5.119,5.119,0,0,1,.828,2.654l-2.139.162a3.454,3.454,0,0,0-1.165-2.415,4.559,4.559,0,0,0-2.936-.816,4.723,4.723,0,0,0-2.95.742,2.226,2.226,0,0,0-.925,1.789,1.911,1.911,0,0,0,.658,1.493,8.887,8.887,0,0,0,3.36,1.2,22.238,22.238,0,0,1,3.73,1.077,5.069,5.069,0,0,1,2.171,1.717,4.168,4.168,0,0,1,.7,2.4,4.591,4.591,0,0,1-.772,2.535,5.081,5.081,0,0,1-2.211,1.849,7.732,7.732,0,0,1-3.248.662,9.732,9.732,0,0,1-3.832-.666,5.366,5.366,0,0,1-2.425-2.007,5.672,5.672,0,0,1-.926-3.028" transform="translate(155.197 123.826)" fill="#fff"/>
    <path id="Path_19" data-name="Path 19" d="M163.225,135.689l2.1-.184a4.654,4.654,0,0,0,.694,2.073,3.8,3.8,0,0,0,1.7,1.313,6.444,6.444,0,0,0,2.584.5,6.163,6.163,0,0,0,2.253-.382,3.146,3.146,0,0,0,1.455-1.037,2.418,2.418,0,0,0,.478-1.443,2.184,2.184,0,0,0-.462-1.385,3.39,3.39,0,0,0-1.515-1,30.639,30.639,0,0,0-3-.822,15.153,15.153,0,0,1-3.252-1.051,4.554,4.554,0,0,1-1.8-1.567,3.84,3.84,0,0,1-.594-2.1,4.273,4.273,0,0,1,.726-2.385,4.488,4.488,0,0,1,2.115-1.683,8.007,8.007,0,0,1,3.09-.576,8.416,8.416,0,0,1,3.3.606,4.769,4.769,0,0,1,2.2,1.773,5.12,5.12,0,0,1,.828,2.654l-2.139.162a3.454,3.454,0,0,0-1.165-2.415,4.559,4.559,0,0,0-2.936-.816,4.723,4.723,0,0,0-2.95.742,2.226,2.226,0,0,0-.925,1.789,1.911,1.911,0,0,0,.658,1.493,8.887,8.887,0,0,0,3.36,1.2,22.239,22.239,0,0,1,3.73,1.077,5.068,5.068,0,0,1,2.171,1.717,4.168,4.168,0,0,1,.7,2.4,4.591,4.591,0,0,1-.772,2.535,5.081,5.081,0,0,1-2.211,1.849,7.732,7.732,0,0,1-3.248.662,9.732,9.732,0,0,1-3.832-.666,5.366,5.366,0,0,1-2.425-2.007,5.672,5.672,0,0,1-.925-3.028" transform="translate(163.041 123.826)" fill="#fff"/>
    <path id="Path_20" data-name="Path 20" d="M174.351,135.689l2.1-.184a4.654,4.654,0,0,0,.694,2.073,3.8,3.8,0,0,0,1.7,1.313,6.445,6.445,0,0,0,2.585.5,6.164,6.164,0,0,0,2.253-.382,3.145,3.145,0,0,0,1.455-1.037,2.418,2.418,0,0,0,.478-1.443,2.183,2.183,0,0,0-.462-1.385,3.39,3.39,0,0,0-1.515-1,30.631,30.631,0,0,0-3-.822,15.153,15.153,0,0,1-3.252-1.051,4.554,4.554,0,0,1-1.8-1.567,3.84,3.84,0,0,1-.594-2.1,4.273,4.273,0,0,1,.726-2.385,4.488,4.488,0,0,1,2.115-1.683,8.006,8.006,0,0,1,3.09-.576,8.415,8.415,0,0,1,3.3.606,4.769,4.769,0,0,1,2.2,1.773,5.119,5.119,0,0,1,.828,2.654l-2.139.162a3.454,3.454,0,0,0-1.165-2.415,4.559,4.559,0,0,0-2.936-.816,4.723,4.723,0,0,0-2.95.742,2.226,2.226,0,0,0-.926,1.789,1.911,1.911,0,0,0,.658,1.493,8.886,8.886,0,0,0,3.36,1.2,22.241,22.241,0,0,1,3.73,1.077,5.069,5.069,0,0,1,2.171,1.717,4.169,4.169,0,0,1,.7,2.4,4.591,4.591,0,0,1-.772,2.535,5.082,5.082,0,0,1-2.211,1.849,7.733,7.733,0,0,1-3.248.662,9.733,9.733,0,0,1-3.832-.666,5.367,5.367,0,0,1-2.425-2.007,5.673,5.673,0,0,1-.925-3.028" transform="translate(174.155 123.826)" fill="#fff"/>
    <path id="Path_21" data-name="Path 21" d="M182.245,132.9a9.164,9.164,0,0,1,2.253-6.568,7.656,7.656,0,0,1,5.815-2.371,8.062,8.062,0,0,1,4.206,1.113,7.272,7.272,0,0,1,2.856,3.108,10.1,10.1,0,0,1,.981,4.523,9.927,9.927,0,0,1-1.033,4.585,7.05,7.05,0,0,1-2.93,3.062,8.354,8.354,0,0,1-4.092,1.039,7.95,7.95,0,0,1-4.252-1.149,7.391,7.391,0,0,1-2.84-3.136,9.53,9.53,0,0,1-.963-4.208m2.3.036a6.75,6.75,0,0,0,1.637,4.8,5.716,5.716,0,0,0,8.253-.016,7.16,7.16,0,0,0,1.627-5.023,8.633,8.633,0,0,0-.7-3.592,5.323,5.323,0,0,0-2.035-2.377,5.5,5.5,0,0,0-3-.846,5.708,5.708,0,0,0-4.076,1.625q-1.706,1.625-1.707,5.431" transform="translate(182.04 123.821)" fill="#fff"/>
    <path id="Path_22" data-name="Path 22" d="M191.7,140.958V124.11h2.229v14.86h8.3v1.989Z" transform="translate(191.481 123.969)" fill="#fff"/>
    <path id="Path_23" data-name="Path 23" d="M209.332,124.11h2.229v9.734a11.506,11.506,0,0,1-.574,4.034,4.915,4.915,0,0,1-2.075,2.431,7.349,7.349,0,0,1-3.936.935,8.062,8.062,0,0,1-3.872-.816,4.625,4.625,0,0,1-2.149-2.363,11.221,11.221,0,0,1-.646-4.222V124.11h2.231v9.723a9.468,9.468,0,0,0,.408,3.234,3.084,3.084,0,0,0,1.4,1.6,4.845,4.845,0,0,0,2.433.564,4.642,4.642,0,0,0,3.5-1.113q1.046-1.116,1.045-4.288Z" transform="translate(198.087 123.97)" fill="#fff"/>
    <path id="Path_24" data-name="Path 24" d="M211.713,140.958V126.1h-5.549V124.11h13.352V126.1h-5.573v14.862Z" transform="translate(205.932 123.969)" fill="#fff"/>
    <rect id="Rectangle_9" data-name="Rectangle 9" width="2.229" height="16.848" transform="translate(428.117 248.08)" fill="#fff"/>
    <path id="Path_25" data-name="Path 25" d="M216.922,132.9a9.164,9.164,0,0,1,2.253-6.568,7.656,7.656,0,0,1,5.815-2.371,8.063,8.063,0,0,1,4.206,1.113,7.273,7.273,0,0,1,2.856,3.108,10.1,10.1,0,0,1,.981,4.523A9.928,9.928,0,0,1,232,137.292a7.052,7.052,0,0,1-2.93,3.062,8.353,8.353,0,0,1-4.092,1.039,7.95,7.95,0,0,1-4.252-1.149,7.392,7.392,0,0,1-2.84-3.136,9.531,9.531,0,0,1-.963-4.208m2.3.036a6.749,6.749,0,0,0,1.637,4.8,5.716,5.716,0,0,0,8.253-.016,7.16,7.16,0,0,0,1.627-5.023,8.633,8.633,0,0,0-.7-3.592,5.322,5.322,0,0,0-2.035-2.377,5.5,5.5,0,0,0-3-.846,5.708,5.708,0,0,0-4.076,1.625q-1.706,1.625-1.707,5.431" transform="translate(216.678 123.821)" fill="#fff"/>
    <path id="Path_26" data-name="Path 26" d="M226.408,140.958V124.11H228.7l8.849,13.227V124.11h2.139v16.848H237.4l-8.849-13.241v13.241Z" transform="translate(226.153 123.969)" fill="#fff"/>
    <path id="Path_27" data-name="Path 27" d="M234.544,135.689l2.1-.184a4.653,4.653,0,0,0,.694,2.073,3.8,3.8,0,0,0,1.7,1.313,6.445,6.445,0,0,0,2.585.5,6.164,6.164,0,0,0,2.253-.382,3.146,3.146,0,0,0,1.455-1.037,2.418,2.418,0,0,0,.478-1.443,2.183,2.183,0,0,0-.462-1.385,3.39,3.39,0,0,0-1.515-1,30.636,30.636,0,0,0-3-.822,15.152,15.152,0,0,1-3.252-1.051,4.555,4.555,0,0,1-1.8-1.567,3.84,3.84,0,0,1-.594-2.1,4.274,4.274,0,0,1,.725-2.385,4.489,4.489,0,0,1,2.115-1.683,8.007,8.007,0,0,1,3.09-.576,8.416,8.416,0,0,1,3.3.606,4.769,4.769,0,0,1,2.2,1.773,5.12,5.12,0,0,1,.828,2.654l-2.139.162a3.454,3.454,0,0,0-1.165-2.415,4.559,4.559,0,0,0-2.936-.816,4.723,4.723,0,0,0-2.95.742,2.226,2.226,0,0,0-.925,1.789,1.911,1.911,0,0,0,.658,1.493,8.887,8.887,0,0,0,3.36,1.2,22.239,22.239,0,0,1,3.73,1.077,5.068,5.068,0,0,1,2.171,1.717,4.168,4.168,0,0,1,.7,2.4,4.592,4.592,0,0,1-.772,2.535,5.081,5.081,0,0,1-2.211,1.849,7.732,7.732,0,0,1-3.248.662,9.732,9.732,0,0,1-3.832-.666,5.366,5.366,0,0,1-2.425-2.007,5.672,5.672,0,0,1-.925-3.028" transform="translate(234.28 123.826)" fill="#fff"/>
    <path id="Path_28" data-name="Path 28" d="M73.724,129.618v12.2H15.807Q0,141.819,0,128.963V102.136Q0,89.345,15.807,89.347H73.526v12.2H15.807q-2.95,0-2.952,2.557v5.315h60.28v12.2H12.855V127q0,2.624,2.952,2.623Z" transform="translate(0 89.246)" fill="#ed4a23"/>
    <path id="Path_29" data-name="Path 29" d="M60.53,105.482a12.451,12.451,0,0,0-3.378-2.788,8.158,8.158,0,0,0-4.1-1.147H52.4v40.273H39.934V89.347H53.053a20.444,20.444,0,0,1,8.823,1.7,22.112,22.112,0,0,1,6.854,5.381l25.384,29.251a13.812,13.812,0,0,0,3.344,2.754,7.807,7.807,0,0,0,4.068,1.181h.656V89.347h12.527v52.472H101.525a21.578,21.578,0,0,1-9.217-1.771,20.5,20.5,0,0,1-6.984-5.641Z" transform="translate(39.889 89.246)" fill="#ed4a23"/>
    <path id="Path_30" data-name="Path 30" d="M115.124,127.126q1.376,2.495,3.476,2.493h3.542a3.358,3.358,0,0,0,1.805-.558,4.95,4.95,0,0,0,1.605-1.869L147.2,89.347h14.76l-27.418,48.077a8.6,8.6,0,0,1-8,4.4h-12.4a12.36,12.36,0,0,1-2.952-.3,6.583,6.583,0,0,1-2.033-.854,5.828,5.828,0,0,1-1.477-1.377,14.16,14.16,0,0,1-1.213-1.935L78.982,89.347H93.806Z" transform="translate(78.893 89.246)" fill="#ed4a23"/>
    <path id="Path_31" data-name="Path 31" d="M174.93,131.52H132.36l-5.773,10.3H111.764l27.482-48.013a14.3,14.3,0,0,1,1.213-1.937,5.963,5.963,0,0,1,1.477-1.375,6.635,6.635,0,0,1,2.033-.854,12.469,12.469,0,0,1,2.95-.294h13.25a8.6,8.6,0,0,1,8,4.394l27.419,48.079h-14.76Zm-36.337-11.543h30.039l-9.117-16a4.968,4.968,0,0,0-1.607-1.869,3.353,3.353,0,0,0-1.8-.558h-5.049q-2.1,0-3.476,2.491Z" transform="translate(111.638 89.245)" fill="#ed4a23"/>
    <path id="Path_32" data-name="Path 32" d="M231.1,109.744v19.349q0,12.725-15.807,12.725H169.77q-15.807,0-15.807-12.857V102.135q0-12.788,15.875-12.789h59.884v12.2H169.838q-3.019,0-3.018,2.559v22.891q0,2.624,3.014,2.623H215.3q2.944,0,2.946-2.493v-17.38Z" transform="translate(153.79 89.245)" fill="#ed4a23"/>
    <path id="Path_33" data-name="Path 33" d="M211.642,141.818q-15.807,0-15.807-12.725V89.346H208.69v37.779q0,2.495,2.952,2.493h57.2v12.2Z" transform="translate(195.614 89.245)" fill="#ed4a23"/>
    <path id="Path_34" data-name="Path 34" d="M254.724,141.818q-19.744,0-19.743-16.659V106.073q0-16.725,19.743-16.727h40.535Q315,89.346,315,106.073V125.16q0,16.659-19.743,16.659Zm0-40.271q-6.887,0-6.886,4.525V125.16q0,4.461,6.886,4.459h40.535q6.887,0,6.888-4.459V106.073q0-4.527-6.888-4.525Z" transform="translate(234.716 89.245)" fill="#ed4a23"/>
    <g id="Group_6" data-name="Group 6" transform="translate(178.509)">
      <path id="Path_35" data-name="Path 35" d="M89.305,71.807c0,39.658,43.136,71.807,96.347,71.807S282,111.465,282,71.807,238.864,0,185.652,0,89.305,32.15,89.305,71.807" transform="translate(-89.305)" fill="#ed4a23"/>
      <path id="Path_36" data-name="Path 36" d="M176.264,13.911c40.631,0,69.97,11.591,69.97,29.263,0,13.288-6.748,21.024-30.373,24.514s-41.608,4.693-53.951,3.606a346.9,346.9,0,0,1-34.534-4.681q9.433,13.87,52.078,15.673,35.575-2.842,53.814-14.98,8.53-2.564,11.3,3.12,3.259,5.826-2.912,12.969-20.529,16.02-61.649,18.516c-48.728-.092-78.985-14.916-78.985-42.232,0-27.922,28.92-45.768,75.239-45.768m1.875,20.249c-25.763,0-40.523,5.271-48.195,11.511,4.667,4.853,21.19,6.656,49.58,6.656,28.156,0,41.746-3.1,41.746-6.934,0-4.937-11.915-11.234-43.132-11.234" transform="translate(-77.598 13.895)" fill="#28216d"/>
      <circle id="Ellipse_1" data-name="Ellipse 1" cx="9.421" cy="9.421" r="9.421" transform="translate(149.192 79.847)" fill="none" stroke="#ed4a23" stroke-miterlimit="10" stroke-width="1"/>
    </g>
  </g>
</svg>
