<svg xmlns="http://www.w3.org/2000/svg" xmlns:xlink="http://www.w3.org/1999/xlink" width="189.81" height="98.616" viewBox="0 0 189.81 98.616">
  <defs>
    <clipPath id="clip-path">
      <rect id="Rectangle_10" data-name="Rectangle 10" width="189.81" height="98.616" fill="none"/>
    </clipPath>
  </defs>
  <g id="Group_584" data-name="Group 584" transform="translate(0.239 5.217)">
    <g id="Mask_Group_3" data-name="Mask Group 3" transform="translate(-0.239 -5.217)" clip-path="url(#clip-path)">
      <path id="Path_28" data-name="Path 28" d="M25.456,103.252v4.213h-20Q0,107.465,0,103.026V93.763q0-4.416,5.458-4.416h19.93v4.212H5.458q-1.019,0-1.019.883v1.835H25.252v4.212H4.439v1.857q0,.906,1.019.906Z" transform="translate(0.14 -24.636)" fill="#ed4a23"/>
      <path id="Path_29" data-name="Path 29" d="M47.046,94.918a4.3,4.3,0,0,0-1.166-.963,2.817,2.817,0,0,0-1.416-.4h-.226v13.906h-4.3V89.347h4.53a7.059,7.059,0,0,1,3.046.588,7.635,7.635,0,0,1,2.367,1.858l8.765,10.1a4.769,4.769,0,0,0,1.155.951,2.7,2.7,0,0,0,1.4.408h.226V89.347h4.325v18.118H61.2a7.451,7.451,0,0,1-3.182-.612,7.078,7.078,0,0,1-2.411-1.948Z" transform="translate(-12.233 -24.636)" fill="#ed4a23"/>
      <path id="Path_30" data-name="Path 30" d="M91.461,102.391a1.385,1.385,0,0,0,1.2.861h1.223a1.16,1.16,0,0,0,.623-.193,1.709,1.709,0,0,0,.554-.645l7.474-13.067h5.1l-9.467,16.6a2.971,2.971,0,0,1-2.763,1.518h-4.28a4.268,4.268,0,0,1-1.019-.1,2.273,2.273,0,0,1-.7-.295,2.012,2.012,0,0,1-.51-.476,4.891,4.891,0,0,1-.419-.668L78.982,89.347H84.1Z" transform="translate(-24.33 -24.636)" fill="#ed4a23"/>
      <path id="Path_31" data-name="Path 31" d="M133.574,103.908h-14.7l-1.993,3.556h-5.118l9.489-16.578a4.94,4.94,0,0,1,.419-.669,2.059,2.059,0,0,1,.51-.475,2.291,2.291,0,0,1,.7-.295,4.306,4.306,0,0,1,1.019-.1h4.575a2.969,2.969,0,0,1,2.763,1.517l9.467,16.6h-5.1Zm-12.547-3.986H131.4L128.252,94.4a1.715,1.715,0,0,0-.555-.645,1.158,1.158,0,0,0-.623-.193H125.33a1.384,1.384,0,0,0-1.2.86Z" transform="translate(-34.487 -24.636)" fill="#ed4a23"/>
      <path id="Path_32" data-name="Path 32" d="M180.6,96.389v6.681q0,4.394-5.458,4.394H159.421q-5.458,0-5.458-4.439V93.762q0-4.415,5.481-4.416h20.677v4.212H159.444q-1.043,0-1.042.883v7.9q0,.906,1.041.906h15.7q1.017,0,1.017-.861v-6Z" transform="translate(-47.56 -24.636)" fill="#ed4a23"/>
      <path id="Path_33" data-name="Path 33" d="M201.293,107.464q-5.458,0-5.458-4.394V89.346h4.439V102.39q0,.861,1.019.861h19.749v4.213Z" transform="translate(-60.533 -24.636)" fill="#ed4a23"/>
      <path id="Path_34" data-name="Path 34" d="M241.8,107.464q-6.817,0-6.817-5.752V95.121q0-5.775,6.817-5.775h14q6.816,0,6.817,5.775v6.591q0,5.752-6.817,5.752Zm0-13.905q-2.378,0-2.378,1.563v6.591q0,1.54,2.378,1.54h14q2.378,0,2.378-1.54V95.121q0-1.563-2.378-1.563Z" transform="translate(-72.661 -24.636)" fill="#ed4a23"/>
      <g id="Group_6" data-name="Group 6" transform="translate(61.776 3.045)">
        <path id="Path_35" data-name="Path 35" d="M89.305,24.794c0,13.693,14.894,24.794,33.267,24.794s33.268-11.1,33.268-24.794S140.946,0,122.572,0,89.305,11.1,89.305,24.794" transform="translate(-89.305)" fill="#ed4a23"/>
        <path id="Path_36" data-name="Path 36" d="M127,13.911c14.029,0,24.16,4,24.16,10.1,0,4.588-2.33,7.259-10.487,8.464S126.31,34.1,122.048,33.725a119.783,119.783,0,0,1-11.924-1.616q3.257,4.789,17.982,5.412,12.284-.981,18.581-5.172,2.945-.885,3.9,1.077,1.125,2.012-1.006,4.478Q142.5,43.435,128.3,44.3c-16.825-.032-27.273-5.15-27.273-14.582,0-9.641,9.986-15.8,25.979-15.8m.647,6.992c-8.9,0-13.992,1.82-16.641,3.975,1.612,1.676,7.317,2.3,17.119,2.3,9.722,0,14.414-1.072,14.414-2.394,0-1.7-4.114-3.879-14.893-3.879" transform="translate(-92.936 -4.31)" fill="#28216d"/>
        <circle id="Ellipse_1" data-name="Ellipse 1" cx="3.253" cy="3.253" r="3.253" transform="translate(51.514 27.57)" fill="none" stroke="#ed4a23" stroke-miterlimit="10" stroke-width="1"/>
      </g>
    </g>
  </g>
</svg>
